<?xml version="1.0" standalone="no"?>
<!DOCTYPE svg PUBLIC "-//W3C//DTD SVG 20010904//EN"
 "http://www.w3.org/TR/2001/REC-SVG-20010904/DTD/svg10.dtd">
<svg version="1.0" xmlns="http://www.w3.org/2000/svg"
preserveAspectRatio="xMidYMid meet" viewBox="-20 -20 300 90" transform='scale(.18)'>
<metadata>
Created by potrace 1.12, written by Peter Selinger 2001-2015
</metadata>
<g transform="translate(-1.000000,454.000000) scale(0.100000,-0.100000)"
fill="#085AA5" stroke="none">
<path d="M1836 4529 c-461 -38 -914 -248 -1242 -576 -381 -381 -584 -874 -584
-1418 0 -534 204 -1028 580 -1405 350 -351 800 -553 1308 -586 l102 -7 0 160
0 160 -97 7 c-513 36 -959 261 -1278 646 -293 354 -439 811 -404 1267 67 881
748 1572 1629 1652 63 6 123 11 133 11 14 0 17 9 17 50 l0 50 -32 -1 c-18 -1
-78 -5 -132 -10z"/>
<path d="M1845 4299 c-539 -56 -1011 -387 -1239 -870 -363 -764 -51 -1668 707
-2051 161 -81 392 -142 585 -154 l102 -7 0 170 0 170 -103 6 c-169 11 -389 76
-541 161 -612 343 -855 1114 -547 1741 130 265 326 467 581 599 175 90 323
131 543 151 l67 7 0 44 0 44 -37 -1 c-21 -1 -74 -5 -118 -10z"/>
<path d="M1895 4090 c-423 -36 -782 -318 -929 -728 -75 -209 -75 -495 0 -704
148 -414 515 -700 932 -725 l102 -6 0 165 0 164 -101 12 c-307 36 -559 211
-694 481 -129 259 -115 585 36 838 48 79 178 214 259 268 136 90 299 145 433
145 l67 0 0 50 c0 28 -3 49 -7 49 -5 -1 -48 -5 -98 -9z"/>
<path d="M2020 3831 l0 -158 118 -6 c556 -25 1102 -353 1402 -842 234 -380
316 -838 230 -1289 -114 -595 -543 -1101 -1123 -1322 -162 -62 -342 -100 -519
-111 l-108 -6 0 -50 0 -50 108 7 c899 54 1640 683 1836 1557 39 176 49 290 43
498 -6 207 -22 315 -74 496 -90 316 -248 587 -483 829 -268 276 -574 455 -936
547 -138 34 -309 59 -414 59 l-80 0 0 -159z"/>
<path d="M2020 3151 l0 -168 88 -7 c208 -17 440 -90 597 -188 506 -318 741
-893 599 -1467 -60 -244 -185 -454 -376 -637 -224 -213 -508 -338 -815 -360
l-93 -7 0 -45 0 -45 103 6 c690 42 1271 549 1412 1232 68 330 20 696 -130 995
-77 153 -160 267 -294 401 -273 272 -574 413 -961 448 -63 6 -118 11 -122 11
-5 0 -8 -76 -8 -169z"/>
<path d="M14920 3116 c-178 -38 -330 -117 -457 -239 -190 -182 -275 -418 -246
-680 27 -234 111 -408 273 -561 94 -88 226 -160 365 -198 116 -31 383 -31 500
0 349 94 586 366 635 730 61 442 -197 810 -658 938 -79 22 -326 28 -412 10z
m281 -397 c193 -42 343 -202 365 -392 8 -68 -17 -184 -57 -265 -85 -174 -288
-277 -477 -243 -209 37 -351 191 -382 415 -41 294 248 550 551 485z"/>
<path d="M5630 3104 c-247 -65 -399 -263 -400 -521 0 -140 36 -239 113 -310
60 -55 118 -83 262 -128 140 -43 232 -79 261 -103 84 -70 72 -186 -26 -241
-109 -61 -288 -25 -439 90 -28 21 -53 39 -56 39 -5 0 -175 -316 -175 -327 0
-27 217 -125 350 -159 115 -29 329 -27 430 5 262 81 386 233 406 498 11 152
-26 265 -115 352 -62 60 -140 101 -281 146 -227 72 -279 103 -295 175 -10 48
22 100 81 130 88 45 224 25 335 -50 l43 -29 82 157 c62 119 79 160 70 169 -21
22 -191 82 -293 102 -119 25 -271 27 -353 5z"/>
<path d="M6772 2498 c3 -516 6 -590 21 -643 62 -216 197 -343 432 -407 115
-31 384 -31 497 0 127 35 218 85 291 160 73 76 109 141 140 250 20 74 21 102
25 650 l3 572 -210 0 -211 0 0 -498 c0 -317 -4 -520 -11 -557 -21 -113 -83
-198 -166 -226 -21 -7 -72 -13 -114 -13 -142 -1 -229 68 -267 211 -12 47 -16
153 -19 571 l-5 512 -204 0 -205 0 3 -582z"/>
<path d="M8650 2905 l0 -175 316 0 c265 0 315 -2 311 -14 -3 -7 -76 -130 -162
-271 -87 -142 -176 -290 -199 -329 -24 -39 -118 -195 -210 -346 -93 -151 -172
-283 -177 -292 -9 -17 26 -18 681 -18 l690 0 0 175 0 175 -335 0 c-245 0 -335
3 -335 11 0 7 74 134 164 283 211 351 578 959 583 969 2 4 -295 7 -661 7
l-666 0 0 -175z"/>
<path d="M10805 3044 c-8 -20 -15 -38 -15 -40 0 -3 -425 -1113 -542 -1414 -22
-58 -43 -111 -45 -118 -4 -10 41 -12 217 -10 l222 3 53 135 52 135 296 3 295
2 30 -77 c16 -43 39 -106 52 -140 l23 -63 218 0 c121 0 219 4 219 9 0 8 -62
173 -340 911 -77 206 -168 448 -201 538 l-61 162 -229 0 -229 0 -15 -36z m334
-724 c44 -135 81 -248 81 -253 0 -4 -79 -7 -175 -7 -99 0 -175 4 -175 9 0 5
38 121 85 257 47 136 85 250 85 253 0 27 30 -52 99 -259z"/>
<path d="M12232 2273 l3 -808 208 -3 207 -2 0 495 c0 272 3 495 8 495 4 -1
179 -223 390 -495 l384 -495 209 0 209 0 0 810 0 810 -210 0 -210 0 -2 -497
-3 -497 -385 496 -385 497 -213 0 -212 1 2 -807z"/>
<path d="M2020 2440 l0 -170 55 0 c31 0 90 -7 132 -16 169 -35 301 -104 425
-222 181 -173 270 -382 270 -632 -1 -234 -83 -437 -242 -600 -157 -161 -336
-246 -558 -265 l-82 -8 0 -45 0 -45 90 7 c186 14 385 86 545 197 96 66 229
205 290 304 201 323 220 739 48 1078 -122 242 -373 454 -633 536 -81 26 -227
51 -291 51 l-49 0 0 -170z"/>
<path d="M10553 845 c-129 -36 -219 -109 -275 -223 -31 -63 -33 -72 -33 -177
0 -100 3 -116 29 -172 36 -79 114 -154 203 -196 85 -39 207 -49 296 -23 l57
17 0 115 0 115 -32 -24 c-173 -128 -392 14 -347 224 16 76 82 142 156 158 76
16 146 -2 201 -52 l23 -21 -3 118 -3 119 -40 14 c-62 21 -172 25 -232 8z"/>
<path d="M14086 849 c-114 -27 -245 -139 -287 -246 -28 -73 -31 -201 -6 -283
33 -112 132 -217 247 -262 81 -32 242 -32 325 0 169 64 267 209 269 397 0 81
-3 97 -31 157 -75 160 -221 249 -401 247 -43 -1 -94 -5 -116 -10z m209 -198
c87 -39 142 -129 133 -215 -19 -168 -182 -261 -328 -186 -113 58 -156 220 -84
322 60 86 186 122 279 79z"/>
<path d="M14929 845 c-60 -19 -132 -84 -154 -137 -24 -60 -23 -165 1 -214 25
-50 68 -79 172 -111 95 -29 142 -62 142 -99 0 -30 -38 -71 -74 -80 -38 -9
-113 12 -164 47 -25 17 -46 29 -47 27 -15 -17 -74 -151 -70 -158 22 -36 165
-81 255 -81 99 0 166 22 223 71 59 52 82 111 82 206 -1 120 -46 168 -202 219
-94 30 -133 56 -133 90 0 59 102 85 180 45 22 -11 42 -20 44 -20 12 0 77 143
69 150 -4 5 -37 18 -73 30 -84 28 -190 35 -251 15z"/>
<path d="M5320 450 l0 -390 100 0 100 0 0 130 0 130 94 0 c111 0 182 20 226
63 50 49 63 84 68 179 4 80 2 93 -23 143 -53 108 -130 135 -392 135 l-173 0 0
-390z m356 199 c19 -18 24 -33 24 -70 0 -73 -21 -92 -109 -97 l-71 -4 0 102 0
103 66 -6 c50 -4 71 -10 90 -28z"/>
<path d="M6140 573 c-56 -147 -124 -323 -150 -390 l-48 -123 107 0 107 0 23
65 23 66 146 -3 146 -3 24 -63 24 -62 105 0 c100 0 104 1 98 20 -3 11 -69 185
-145 387 l-138 368 -109 3 -109 3 -104 -268z m258 -102 c22 -66 37 -122 34
-125 -7 -8 -157 -8 -165 0 -7 7 74 244 84 244 4 0 25 -54 47 -119z"/>
<path d="M6880 451 l0 -391 95 0 94 0 3 128 3 127 115 6 c90 4 124 10 155 26
77 40 113 101 122 202 8 99 -14 168 -71 218 -67 59 -96 65 -318 70 l-198 5 0
-391z m357 194 c23 -26 31 -83 17 -120 -11 -27 -60 -45 -124 -45 l-60 0 0 93
c0 52 3 97 8 101 4 5 36 6 72 3 54 -4 68 -9 87 -32z"/>
<path d="M7610 450 l0 -390 220 0 220 0 0 80 0 80 -120 0 -121 0 3 73 3 72
113 3 112 3 0 79 0 79 -112 3 -113 3 -3 68 -3 67 121 0 120 0 0 85 0 85 -220
0 -220 0 0 -390z"/>
<path d="M8270 450 l0 -390 220 0 220 0 0 80 0 80 -120 0 -120 0 0 310 0 310
-100 0 -100 0 0 -390z"/>
<path d="M9270 450 l0 -390 220 0 220 0 0 80 0 80 -120 0 -121 0 3 73 3 72
113 3 112 3 0 79 0 80 -115 0 -115 0 0 70 0 70 120 0 120 0 0 85 0 85 -220 0
-220 0 0 -390z"/>
<path d="M11046 832 c-3 -5 -5 -181 -5 -390 l1 -382 224 0 224 0 0 80 0 79
-122 3 -123 3 0 70 0 70 115 3 115 3 -3 79 -4 79 -111 3 -112 3 -3 68 -3 67
126 0 125 0 0 85 0 85 -219 0 c-121 0 -222 -4 -225 -8z"/>
<path d="M11730 450 l0 -390 220 0 220 0 0 80 0 80 -120 0 -120 0 0 310 0 310
-100 0 -100 0 0 -390z"/>
<path d="M12312 543 c3 -332 5 -344 75 -415 56 -58 121 -81 239 -86 174 -7
272 38 329 153 l30 60 3 293 3 292 -100 0 -100 0 -3 -267 c-3 -234 -5 -272
-21 -300 -22 -41 -64 -63 -117 -63 -59 0 -98 24 -121 73 -17 38 -19 68 -19
300 l0 257 -101 0 -100 0 3 -297z"/>
<path d="M13217 833 c-3 -5 -5 -180 -5 -390 l-1 -383 225 0 224 0 0 80 0 79
-122 3 -123 3 -3 308 -2 307 -95 0 c-51 0 -96 -3 -98 -7z"/>
<path d="M15440 450 l0 -390 220 0 220 0 0 80 0 79 -117 3 -118 3 0 70 0 70
113 3 112 3 0 79 0 79 -112 3 -113 3 -3 68 -3 67 121 0 120 0 0 85 0 85 -220
0 -220 0 0 -390z"/>
</g>
</svg>
